<svg xmlns="http://www.w3.org/2000/svg" xmlns:xlink="http://www.w3.org/1999/xlink" version="1.1" x="0px" y="0px" viewBox="-346 256 100 100" enable-background="new -346 256 100 100" xml:space="preserve"><g><path d="M-313.313,338.125c-18.019,0-32.679-14.657-32.679-32.675c0-18.017,14.66-32.676,32.679-32.676   c11.363,0,21.737,5.765,27.752,15.42c0.755,1.213,0.384,2.807-0.827,3.562s-2.808,0.388-3.562-0.828   c-5.063-8.129-13.799-12.983-23.363-12.983c-15.168,0-27.508,12.34-27.508,27.506c0,15.164,12.34,27.504,27.508,27.504   c5.255,0,10.363-1.487,14.771-4.298c0.001-0.003,0.003-0.003,0.004-0.003c0.468-0.299,0.925-0.611,1.373-0.935   c1.158-0.841,2.772-0.582,3.611,0.571c0.84,1.154,0.584,2.771-0.571,3.611c-0.529,0.385-1.071,0.754-1.622,1.104   c-0.004,0.003-0.006,0.003-0.008,0.006C-300.999,336.354-307.069,338.125-313.313,338.125L-313.313,338.125z"></path><path d="M-313.54,310.036c-0.642,0-1.265-0.241-1.744-0.679l-11.895-10.858c-1.055-0.963-1.129-2.598-0.166-3.653   c0.963-1.056,2.597-1.126,3.653-0.166l9.771,8.922l11.224-15.266c0.844-1.152,2.462-1.397,3.615-0.551   c1.151,0.847,1.397,2.466,0.551,3.614l-12.927,17.581c-0.435,0.592-1.099,0.97-1.83,1.043   C-313.371,310.03-313.455,310.036-313.54,310.036L-313.54,310.036z"></path></g><g><path d="M-246.07,328.441l-13.329-4.857v-48.086c0-2.305-1.878-4.184-4.188-4.184c-0.666,0-1.273,0.196-1.833,0.475v27.467h-2.034   v-25.344c-0.004,0.01-0.012,0.019-0.021,0.028v-5.039c0-2.315-1.871-4.187-4.181-4.187c-2.314,0-4.19,1.873-4.19,4.187v3.32   c1.898,0.765,3.227,2.586,3.227,4.713v22.321h-2.031v-22.247c0-1.816-1.473-3.291-3.298-3.291c-1.817,0-3.292,1.474-3.292,3.291   v33.103l-2.402,0.006l0.016-10.594c-0.002-2.13-1.742-3.859-3.874-3.875c-0.642,0.01-1.27,0.166-1.816,0.471   c-0.588,0.32-1.073,0.776-1.439,1.315c-0.388,0.634-0.591,1.342-0.585,2.077l-0.062,19.142c0,0,0.183,3.318,0.535,4.766   c1.135,6.042,6.178,8.544,6.178,8.544L-246,350.667L-246.07,328.441z"></path></g></svg>